<svg version="1.1"
	 id="Layer_1" xmlns:dc="http://purl.org/dc/elements/1.1/" xmlns:cc="http://creativecommons.org/ns#" xmlns:rdf="http://www.w3.org/1999/02/22-rdf-syntax-ns#" xmlns:svg="http://www.w3.org/2000/svg" xmlns:sodipodi="http://sodipodi.sourceforge.net/DTD/sodipodi-0.dtd" xmlns:inkscape="http://www.inkscape.org/namespaces/inkscape"
	 xmlns="http://www.w3.org/2000/svg" xmlns:xlink="http://www.w3.org/1999/xlink" x="0px" y="0px" width="504px" height="468px"
	 viewBox="0 0 504 468" enable-background="new 0 0 504 468" xml:space="preserve">
<g>
	<path fill-rule="evenodd" clip-rule="evenodd" d="M246.981,88.488c56.108,0,111.237,0,164.848,0
		c14.484,0,28.706-1.277,40.941,0.271c16.024,2.028,28.75,14.795,30.638,31.18c0.679,5.889,0.271,12.822,0.271,20.335
		c0,81.638,0,164.902,0,247.271c0,7.665,0.57,14.44-0.271,20.334c-2.266,15.86-15.059,28.449-31.723,30.096
		c-12.622,1.247-26.072-0.838-40.398,0c-0.44,0.976,0.995,1.539,1.626,2.17c2.141,2.14,4.52,4.472,7.05,6.777
		c2.672,2.432,8.155,6.498,8.406,10.303c0.4,6.096-4.655,8.742-8.678,8.676c-4.386-0.071-6.938-3.414-9.217-5.693
		c-5.155-5.154-9.188-9.457-14.642-14.911c-2.366-2.367-4.929-5.946-7.861-6.777c-3.892-1.104-10.786-0.272-16.54-0.272
		c-78.056,0-157.161,0-235.342,0c-5.752,0-12.498-0.946-17.081,0.272c-2.874,0.76-5.322,4.236-7.864,6.777
		c-5.246,5.245-9.394,9.393-14.64,14.64c-3.054,3.054-5.638,6.715-11.116,5.965c-3.359-0.46-6.288-2.939-6.778-7.861
		c-0.001-2.361,2.354-3.981,3.795-5.424c4.438-4.438,9.894-8.823,13.556-13.558c-13.053-0.519-25.262-0.688-37.145-0.812
		c-12.357-0.13-20.792-4.735-26.843-11.116c-6.498-6.857-9.759-16.082-9.759-28.198c0-86.917-0.001-177.127,0-264.624
		c0-14.181,0.812-23.025,6.778-31.18c5.086-6.955,13.223-12.673,23.587-14.099c11.41-1.57,24.324-0.542,36.875-0.542
		c37.931,0,75.036,0,113.333,0c0.216-0.935-0.852-1.613-1.356-2.169c-1.385-1.525-3.098-3-4.338-4.881
		c-2.803-4.249-7.098-7.911-10.845-11.658c-14.986-14.986-29.458-30.271-45.007-45.821c-2.842-2.841-7.358-6.12-7.593-10.303
		c-0.308-5.526,4.521-10.289,10.846-8.948c3.329,0.707,7.71,6.355,10.574,9.219c19.948,19.947,39.062,39.604,59.107,59.648
		c2.944,2.945,6.997,8.857,10.845,8.948c3.643,0.086,8.453-5.742,11.388-8.676c20.117-20.116,39.18-39.994,59.377-60.191
		c2.957-2.958,6.873-8.341,10.846-8.948c6.13-0.936,10.856,3.322,10.031,9.761c-0.466,3.64-4.83,7.27-7.863,10.303
		c-8.27,8.269-18.966,19.237-26.842,27.113c-2.964,2.965-6.441,5.595-9.489,8.676C263.687,69.436,255.06,79.217,246.981,88.488z
		 M40.11,119.126c-2.575,9.094-1.085,23.397-1.085,34.704c0,73.583,0,143.772,0,216.092c0,11.783-1.45,25.364,0.542,35.517
		c1.751,8.918,6.851,13.727,15.455,15.454c6.213,1.249,14.116,0.542,21.962,0.542c117.424,0,232.91,0,348.673,0
		c8.398,0,16.07,0.676,23.047,0c6.708-0.647,11.404-4.006,14.641-8.676c5.824-8.399,3.525-29.412,3.525-42.837
		c-0.001-77.47,0-154.15,0-232.36c0-9.086,0.595-16.108-1.899-21.419c-5.688-12.115-19.328-10.845-36.061-10.845
		c-108.197,0-214.924,0-322.374,0c-16.401,0-33.164-1.154-49.074,0c-0.186,0.014-0.275,0.272-0.271,0.271
		C48.315,106.652,42.393,111.056,40.11,119.126z"/>
	<path fill-rule="evenodd" clip-rule="evenodd" d="M111.959,144.07c18.59-1.552,42.754-0.271,63.173-0.271
		c41.463,0,84.723,0,125.805,0c12.189,0,18.604,1.055,26.028,5.422c9.34,5.492,17.125,14.91,17.352,29.825
		c0.719,47.023,0,95.041,0,141.531c0,10.631,1.077,21.624-0.271,31.179c-2.191,15.538-15.729,29.357-32.806,30.097
		c-20.633,0.892-41.898,0-62.902,0c-42.288,0-84.05,0-125.805,0c-12.206,0-18.892-0.488-26.57-4.881
		c-6.264-3.586-11.438-9.34-14.641-16.812c-3.033-7.071-2.711-17.646-2.711-28.739c0-42.07,0-83.808,0-125.804
		c0-10.065-0.949-21.038,0.271-31.18C80.96,157.127,95.525,145.441,111.959,144.07z M96.233,175.25
		c-1.524,6.077-0.814,14.322-0.814,21.69c0,45.813,0,89.114,0,135.023c0,8.322-0.47,16.067,1.357,21.147
		c1.809,5.039,6.173,9.177,11.928,10.847c6.544,1.897,16.03,1.083,24.674,1.083c52.731,0,102.164,0,154.544,0
		c8.424,0,18.51,1.142,25.216-0.542c7.806-1.958,12.279-7.35,13.827-14.641c1.298-6.114,0.543-13.292,0.543-20.877
		c0-42.66,0-87.524,0-129.058c0-6.828,0.784-14.613,0-21.69c-0.984-8.861-6.82-14.062-11.93-15.997
		c-7.391-2.799-18.672-1.627-28.469-1.627c-49.777,0-99.314,0-148.309,0c-8.038,0-17.907-0.549-25.216,0.272
		C104.973,161.847,98.521,166.126,96.233,175.25z"/>
	<path fill-rule="evenodd" clip-rule="evenodd" d="M404.237,157.898c9.216-0.719,17.165,4.568,20.336,9.218
		c9.243,13.556,0.814,31.499-13.015,34.705c-14.184,3.288-31.012-7.865-27.384-26.571
		C385.987,165.9,393.915,158.703,404.237,157.898z"/>
	<path fill-rule="evenodd" clip-rule="evenodd" d="M390.952,240.864c3.928-0.72,11.096-0.272,16.538-0.272
		c9.026,0,18.71-0.993,20.606,5.967c1.33,4.881-1.685,9.854-5.693,10.844c-3.885,0.959-11.015,0-16.811,0
		c-5.897,0-12.385,0.893-15.996-0.271c-3.422-1.101-6.979-4.322-5.694-10.305C384.51,243.999,387.544,241.487,390.952,240.864z"/>
	<path fill-rule="evenodd" clip-rule="evenodd" d="M391.493,296.175c3.605-0.521,10.771-0.271,16.812-0.271
		c5.284,0,12.153-0.716,15.454,0.812c7.742,3.585,4.72,14.498-1.355,15.997c-3.752,0.927-10.989,0-16.269,0
		c-5.892,0-11.806,0.995-16.538-0.271c-3.575-0.956-6.937-4.464-5.694-10.302C384.562,299.041,387.636,296.731,391.493,296.175z"/>
	<path fill-rule="evenodd" clip-rule="evenodd" d="M422.404,368.024c-5.386,0-10.649,0-16.811,0c-5.199,0-12.229,1.127-16.538-0.271
		c-3.583-1.162-6.172-5.558-5.152-10.305c1.713-7.972,12.711-6.235,24.402-6.235c10.211,0,18.783-0.847,20.063,6.778
		C429.303,363.563,426.149,366.019,422.404,368.024z"/>
</g>
</svg>
