<svg version="1.1"
	 id="Layer_1" xmlns:dc="http://purl.org/dc/elements/1.1/" xmlns:cc="http://creativecommons.org/ns#" xmlns:rdf="http://www.w3.org/1999/02/22-rdf-syntax-ns#" xmlns:svg="http://www.w3.org/2000/svg" xmlns:sodipodi="http://sodipodi.sourceforge.net/DTD/sodipodi-0.dtd" xmlns:inkscape="http://www.inkscape.org/namespaces/inkscape"
	 xmlns="http://www.w3.org/2000/svg" xmlns:xlink="http://www.w3.org/1999/xlink" x="0px" y="0px" width="504px" height="468px"
	 viewBox="0 0 504 468" enable-background="new 0 0 504 468" xml:space="preserve">
<path d="M250.705,7.749c2.322-0.192,7.345,0.169,10.764,1.96c2.779,1.457,5.283,4.134,7.875,6.44
	c55.622,49.502,110.495,99.088,165.93,148.686c13.627,12.192,30.481,26.926,45.421,40.602c7.271,6.656,20.104,14.073,15.229,28.562
	c-1.576,4.68-4.479,7.822-8.403,10.08c-7.22,4.158-21.612,2.522-32.818,2.522c-5.146,0-15.306-1.297-17.591,0.839
	c-2.449,2.294-1.049,19.038-1.049,23.803c0.001,50.932,0,97.455,0,148.683c0,8.417,1.45,20.385-0.787,26.321
	c-1.699,4.498-4.778,7.702-8.402,9.801c-4.247,2.462-8.562,2.522-14.701,2.522c-22.937,0-47.068,0-70.101,0
	c-12.579,0-24.45,1.25-34.656-0.279c-7.483-1.124-13.755-6.999-15.228-14.001c-1.975-9.397-0.526-22.727-0.526-33.602
	c0-29.024,0-55.291,0-85.401c0-3.891,0.872-14.248-0.523-16.241c-1.701-2.431-15.248-1.122-19.167-1.122
	c-18.04,0-32.771,0.002-50.146,0c-3.275,0-8.082-0.33-9.188,0.842c-1.956,2.066-0.787,12.229-0.787,16.521
	c0,35.089,0,67.997,0,103.043c0,6.072,0.55,11.923-0.526,16.521c-1.292,5.529-5.771,9.841-10.239,12.041
	c-5.172,2.546-12.368,1.68-19.69,1.68c-30.375,0-55.275,0-85.065,0c-7.428,0-13.939,0.637-18.904-1.961
	c-4.454-2.331-8.615-6.71-9.713-12.32c-1.312-6.694-0.263-16.313-0.263-24.362c0-53.046,0-106.063,0-160.164
	c0-5.194,0.51-11.027-1.05-12.32c-2.728-2.26-16.917-0.84-22.579-0.84c-8.19,0-16.641,1.096-23.104-0.279
	c-9.466-2.016-16.597-11.585-13.389-23.24c1.636-5.946,8.157-10.72,13.128-15.122c34.751-30.759,68.395-61.389,102.918-92.404
	c34.645-31.128,67.875-61.261,102.913-92.402c4.923-4.375,10.196-10.147,14.965-12.88C243.594,8.929,247.63,8.006,250.705,7.749z
	 M243.616,33.511c-16.095,14.715-32.647,29.108-48.308,43.122c-53.004,47.425-104.715,94.326-158.315,141.965
	c-1.82,1.617-6.466,4.876-5.777,7.561c0.758,2.957,9.127,1.961,11.814,1.961c140.414,0,277.069,0,417.185,0
	c3.079,0,11.367,0.815,12.076-1.961c0.688-2.684-4.007-6.209-5.515-7.561c-35.689-32.064-67.971-61.484-103.969-92.965
	c-37.032-32.385-67.98-61.211-103.703-92.962c-1.99-1.771-5.558-5.898-8.139-5.321C249.092,27.771,245.611,31.688,243.616,33.511z
	 M89.239,246.879c-3.012,0.555-2.101,7.239-2.101,10.08c0,57.961,0,114.136,0,170.808c0,4.305-0.317,10.32,0.788,11.481
	c1.468,1.54,8.403,0.84,12.076,0.84c27.164,0,52.008,0,78.765,0c3.905,0,10.844,0.573,12.34-0.84
	c2.019-1.907,1.05-10.977,1.05-15.399c0-35.551,0-68.94,0-104.164c0-6.48-0.572-12.692,0.526-16.799
	c1.501-5.628,7.027-11.572,13.388-13.16c5.779-1.445,14.967-0.561,22.842-0.561c14.541,0,31.931,0,46.731,0
	c7.912,0,17.317-0.982,22.844,0.84c5.884,1.942,11.355,7.56,12.604,13.44c0.897,4.247,0.263,10.685,0.263,16.801
	c0,34.928,0,68.708,0,103.323c0,4.598-0.713,14.017,1.047,15.683c1.491,1.406,8.318,0.84,12.078,0.84c27.649,0,51.997,0,78.765,0
	c3.481,0,10.707,0.872,12.34-0.84c1.147-1.203,0.788-7.109,0.788-11.2c0.003-56.691-0.002-113.058,0-169.128
	c0-2.693,0.435-10.211-0.788-11.481c-1.928-1.999-14.358-0.84-19.428-0.84c-96.411,0-189.96,0-285.651,0
	c-6.604,0-16.083-1.026-20.742,0.28C89.601,246.926,89.405,246.849,89.239,246.879z"/>
</svg>