<svg version="1.1"
	 id="Layer_1" xmlns:dc="http://purl.org/dc/elements/1.1/" xmlns:cc="http://creativecommons.org/ns#" xmlns:rdf="http://www.w3.org/1999/02/22-rdf-syntax-ns#" xmlns:svg="http://www.w3.org/2000/svg" xmlns:sodipodi="http://sodipodi.sourceforge.net/DTD/sodipodi-0.dtd" xmlns:inkscape="http://www.inkscape.org/namespaces/inkscape"
	 xmlns="http://www.w3.org/2000/svg" xmlns:xlink="http://www.w3.org/1999/xlink" x="0px" y="0px" width="504px" height="468px"
	 viewBox="0 0 504 468" enable-background="new 0 0 504 468" xml:space="preserve">
<g>
	<path d="M62.825,36.527c31.229-0.988,64.058,0,97.017,0c89.682,0,178.771,0,269.289,0c7.98,0,16.24-0.815,23.273,0
		c9.959,1.154,19.753,9.723,21.761,21.246c1.078,6.199,0.302,13.422,0.302,21.888c0,81.396,0,162.263,0,243.668
		c0,8.261-0.397,13.949-3.021,18.992c-3.191,6.136-10.01,12.364-18.134,13.52c-7.137,1.014-15.41,0-23.575,0
		c-115.216,0-230.003,0-346.058,0c-9.129,0-19.756,1.327-27.201-0.966c-8.938-2.753-17.262-10.422-18.436-21.889
		c-1.306-12.755,0-26.892,0-40.558c0-67.932,0-132.067,0-201.179c0-13.277-1.717-29.355,1.813-38.304
		C43.682,43.238,52.013,36.869,62.825,36.527z M55.269,60.669c-1.955,7.727-0.604,21.464-0.604,33.476c0,69.845,0,137.769,0,206.65
		c0,10.498-1.421,27.218,1.509,32.19c3.429,5.817,15.762,4.186,25.691,4.186c116.759,0,231.978,0,348.476,0
		c7.479,0,19.968,0.872,23.573-1.611c6.089-4.192,3.93-24.941,3.931-36.372c0.002-71.107-0.002-137.132,0-207.619
		c0-9.392,1.944-27.513-1.514-33.155c-3.511-5.732-13.726-4.185-23.875-4.185c-123.912,0-247.093,0.536-369.329-0.643
		c0.001-0.179-0.244-0.365-0.301,0C58.451,53.692,56.182,57.057,55.269,60.669z"/>
	<path fill="#FFFFFF" d="M62.825,53.586c0.057-0.364,0.302-0.179,0.301,0c122.235,1.18,245.417,0.644,369.329,0.644
		c10.149,0,20.364-1.549,23.875,4.185c3.457,5.641,1.514,23.764,1.514,33.155c-0.002,70.487,0.002,136.51,0,207.619
		c-0.001,11.43,2.158,32.181-3.931,36.372c-3.605,2.484-16.094,1.61-23.573,1.61c-116.498,0-231.717,0-348.477,0
		c-9.928,0-22.262,1.632-25.69-4.185c-2.934-4.973-1.509-21.691-1.509-32.189c0-68.882,0-136.809,0-206.651
		c0-12.012-1.352-25.749,0.604-33.476C56.182,57.057,58.451,53.692,62.825,53.586z"/>
	<path d="M3.89,390.999c2.76-2.204,6.658-1.208,9.826-1.208c46.63,0,94.325,0,142.042,0c6.43,0,16.986,1.393,21.054-0.604
		c1.571-0.771,2.262-2.389,2.809-3.93c0.843-2.379,0.468-4.422,3.089-5.139c4.166-1.139,11.221,0,16.842,0
		c33.75,0,65.913,0,100.499,0c4.899,0,13.315-1.057,16.28,0.303c2.398,1.102,2.06,7.271,5.054,8.766
		c4.209,2.099,15.778,0.604,22.459,0.604c50.211,0,98.372,0,149.06,0c4.021,0,8.089-0.492,9.266,2.117
		c1.239,2.749-1.47,8.158-3.089,11.484c-5.372,11.036-15.484,20.063-29.194,21.459c-8.217,0.833-17.448,0-26.389,0
		c-126.43,0-255.926,0-383.46,0c-9.968,0-21.26,1.198-28.635-1.211c-7.155-2.337-13.345-6.295-18.247-11.787
		C8.452,406.586,4.42,399.37,3.89,390.999z"/>
</g>
<g>
	<g>
		<g>
			<path d="M232.582,262.208L232.582,262.208c0,0.759-0.761,1.521-1.52,1.521h-74.411c-0.76,0-1.519-0.76-1.519-1.521l0,0
				c0-3.796-0.759-34.167,1.519-37.965c2.277-3.036,21.262-11.39,24.3-12.148c0,0,0.758,0,0.758,0.758l11.39,12.91
				c0,0.758,0.759,0.758,1.521,0l11.39-12.91l0.759-0.758c3.036,0.758,22.019,9.112,24.297,12.148
				C233.341,228.041,232.582,258.412,232.582,262.208z"/>
			<path d="M211.321,184.761c0-2.277-0.759-4.556-1.519-6.074c-1.519-9.112-8.352-12.147-15.945-12.147
				c-8.351,0-15.186,3.795-15.943,13.666c-0.761,0.759-1.521,3.038-1.521,5.314c0,3.038,0.76,6.075,2.278,6.075
				c2.277,9.872,8.352,17.463,15.186,17.463c7.592,0,13.668-8.352,15.945-18.222C210.562,190.076,211.321,187.04,211.321,184.761z"
				/>
		</g>
		<rect x="243.211" y="194.632" width="72.132" height="13.667"/>
		<rect x="269.028" y="167.296" width="46.316" height="13.668"/>
		<rect x="243.211" y="221.966" width="72.132" height="13.668"/>
		<rect x="243.211" y="249.299" width="72.132" height="13.67"/>
		<path d="M130.835,130.092v170.082h205.011V130.092H130.835z M322.938,286.507H143.743V142.998h178.435v143.509H322.938
			L322.938,286.507z"/>
		<polygon points="370.015,95.923 370.015,266.766 347.238,266.766 347.238,253.857 357.105,253.857 357.105,108.83 177.154,108.83 
			177.154,118.702 164.244,118.702 164.244,95.923 		"/>
	</g>
</g>
</svg>