<svg version="1.1"
	 id="Layer_1" xmlns:dc="http://purl.org/dc/elements/1.1/" xmlns:cc="http://creativecommons.org/ns#" xmlns:rdf="http://www.w3.org/1999/02/22-rdf-syntax-ns#" xmlns:svg="http://www.w3.org/2000/svg" xmlns:sodipodi="http://sodipodi.sourceforge.net/DTD/sodipodi-0.dtd" xmlns:inkscape="http://www.inkscape.org/namespaces/inkscape"
	 xmlns="http://www.w3.org/2000/svg" xmlns:xlink="http://www.w3.org/1999/xlink" x="0px" y="0px" width="504px" height="468px"
	 viewBox="0 0 504 468" enable-background="new 0 0 504 468" xml:space="preserve">
<g>
	<path d="M493.974,120.444c0.005-0.085,0.009-0.172,0.009-0.266c0-0.091,0.018-0.184,0.018-0.282c0-0.201-0.043-0.387-0.055-0.583
		c-0.021-0.311-0.037-0.617-0.086-0.926c-0.058-0.318-0.144-0.617-0.227-0.922c-0.05-0.185-0.069-0.368-0.136-0.547l-29.675-85.195
		c-0.021-0.059-0.056-0.103-0.076-0.167c-0.119-0.317-0.268-0.61-0.42-0.909c-0.103-0.207-0.201-0.425-0.324-0.622
		c-0.157-0.259-0.345-0.489-0.527-0.725c-0.153-0.201-0.294-0.409-0.466-0.593c-0.194-0.213-0.42-0.396-0.637-0.586
		c-0.186-0.162-0.354-0.335-0.552-0.479c-0.245-0.178-0.508-0.321-0.769-0.472c-0.197-0.115-0.389-0.241-0.59-0.339
		c-0.263-0.12-0.541-0.206-0.813-0.3c-0.235-0.08-0.465-0.172-0.704-0.23c-0.24-0.058-0.49-0.08-0.738-0.115
		c-0.299-0.041-0.593-0.086-0.895-0.098c-0.061,0-0.114-0.018-0.181-0.018H48.062c-0.063,0-0.131,0.018-0.196,0.022
		c-0.272,0.006-0.54,0.052-0.807,0.086c-0.279,0.036-0.556,0.063-0.823,0.127c-0.208,0.053-0.404,0.132-0.611,0.201
		c-0.305,0.104-0.617,0.197-0.905,0.333c-0.175,0.08-0.337,0.197-0.507,0.289c-0.288,0.167-0.578,0.323-0.846,0.525
		c-0.178,0.132-0.336,0.293-0.507,0.442c-0.229,0.201-0.463,0.397-0.676,0.628c-0.164,0.179-0.3,0.38-0.447,0.575
		c-0.186,0.242-0.378,0.479-0.535,0.738c-0.121,0.196-0.211,0.414-0.322,0.622c-0.153,0.3-0.3,0.593-0.421,0.904
		c-0.021,0.059-0.055,0.104-0.076,0.167l-29.675,85.19c-0.065,0.179-0.082,0.368-0.137,0.547c-0.086,0.305-0.173,0.604-0.225,0.921
		c-0.054,0.311-0.069,0.616-0.087,0.926c-0.011,0.195-0.054,0.386-0.054,0.582c0,0.098,0.011,0.185,0.016,0.282
		c0,0.086,0.006,0.173,0.012,0.266c0.185,18.109,9.59,33.889,23.479,42.434v216.493H20.239c-4.523,0-8.184,3.871-8.184,8.637v46.032
		c0,4.768,3.66,8.637,8.184,8.637h463.725c4.524,0,8.185-3.869,8.185-8.637v-46.034c0-4.766-3.66-8.637-8.185-8.637h-13.467V162.878
		C484.382,154.333,493.788,138.553,493.974,120.444z M27.704,128.533h59.263c-3.595,13.72-15.497,23.842-29.632,23.842
		C43.2,152.375,31.304,142.261,27.704,128.533z M53.768,43.338h396.663l23.658,67.923H30.11L53.768,43.338z M164.874,128.533
		c-3.597,13.72-15.499,23.842-29.633,23.842c-14.133,0-26.037-10.116-29.632-23.842H164.874z M242.776,128.533
		c-3.594,13.72-15.497,23.842-29.631,23.842c-14.134,0-26.038-10.116-29.632-23.842H242.776z M320.686,128.533
		c-3.593,13.72-15.499,23.842-29.631,23.842c-14.133,0-26.037-10.116-29.633-23.842H320.686z M398.591,128.533
		c-3.597,13.72-15.498,23.842-29.631,23.842c-14.137,0-26.04-10.116-29.635-23.842H398.591z M476.494,128.533
		c-3.595,13.72-15.497,23.842-29.633,23.842c-14.135,0-26.038-10.116-29.632-23.842H476.494z M57.336,169.648
		c16.175,0,30.463-8.648,38.956-21.78c8.494,13.133,22.782,21.78,38.956,21.78c11.761,0,22.504-4.6,30.772-12.148v219.798H50.07
		V168.993C52.443,169.383,54.86,169.648,57.336,169.648z M475.78,425.402H28.418v-28.758h447.36L475.78,425.402L475.78,425.402z
		 M454.129,377.298H182.378V157.5c8.266,7.548,19.012,12.148,30.772,12.148c16.174,0,30.461-8.648,38.955-21.78
		c8.493,13.133,22.78,21.78,38.955,21.78c16.174,0,30.461-8.648,38.955-21.78c8.493,13.133,22.78,21.78,38.955,21.78
		c16.176,0,30.461-8.648,38.955-21.78c8.493,13.133,22.78,21.78,38.957,21.78c2.477,0,4.894-0.265,7.265-0.657v208.306H454.129z"/>
	<path d="M270.651,280.23c2.096,0,4.19-0.842,5.788-2.528l44.521-46.987c3.194-3.374,3.194-8.838,0-12.212
		c-3.197-3.374-8.375-3.374-11.572,0l-44.519,46.986c-3.195,3.375-3.195,8.839,0,12.214
		C266.463,279.389,268.558,280.23,270.651,280.23z"/>
	<path d="M375.264,288.036l-44.519,46.988c-3.196,3.374-3.196,8.838,0,12.213c1.599,1.688,3.693,2.527,5.786,2.527
		c2.097,0,4.191-0.84,5.789-2.527l44.521-46.988c3.196-3.374,3.196-8.838,0-12.213C383.644,284.663,378.461,284.663,375.264,288.036
		z"/>
	<path d="M385.014,218.497c-3.199-3.373-8.374-3.373-11.571,0L264.864,333.102c-3.195,3.373-3.195,8.839,0,12.213
		c1.6,1.687,3.694,2.526,5.787,2.526c2.096,0,4.19-0.84,5.788-2.526l108.578-114.6C388.209,227.341,388.209,221.871,385.014,218.497
		z"/>
	<ellipse cx="139.67" cy="284.569" rx="9.067" ry="9.568"/>
</g>
</svg>