<svg version="1.1"
	 id="Layer_1" xmlns:dc="http://purl.org/dc/elements/1.1/" xmlns:cc="http://creativecommons.org/ns#" xmlns:rdf="http://www.w3.org/1999/02/22-rdf-syntax-ns#" xmlns:svg="http://www.w3.org/2000/svg" xmlns:sodipodi="http://sodipodi.sourceforge.net/DTD/sodipodi-0.dtd" xmlns:inkscape="http://www.inkscape.org/namespaces/inkscape"
	 xmlns="http://www.w3.org/2000/svg" xmlns:xlink="http://www.w3.org/1999/xlink" x="0px" y="0px" width="504px" height="468px"
	 viewBox="0 0 504 468" enable-background="new 0 0 504 468" xml:space="preserve">
<g>
	<path fill-rule="evenodd" clip-rule="evenodd" d="M109.418,16.733c20.621-1.524,35.849,6.728,46.572,16.259
		c10.766,9.569,19.093,23.096,20.392,41.887c1.384,20.008-5.76,35.307-15.708,46.573c-9.557,10.823-23.566,19.784-41.887,20.943
		c-19.56,1.237-35.663-5.919-46.849-15.983c-10.969-9.869-19.591-23.592-20.944-41.887c-1.605-21.715,6.513-36.034,15.983-46.848
		C76.074,27.293,90.579,18.127,109.418,16.733z M73.593,63.031c-12.026,30.203,10.795,58.59,38.306,59.799
		c12.263,0.539,23.597-4.426,31.139-11.023c8.731-7.635,15.384-20.385,14.055-36.651c-0.394-4.817-1.456-9.748-4.685-15.983
		c-6.78-13.087-22.083-25.138-43.265-22.873C91.321,38.205,78.956,49.559,73.593,63.031z"/>
	<path fill-rule="evenodd" clip-rule="evenodd" d="M383.34,73.502c21.264-1.745,36.358,5.893,47.399,15.432
		c11.019,9.522,19.483,22.256,21.219,41.612c1.772,19.777-5.572,36.167-15.157,47.124c-9.748,11.144-23.405,19.544-41.611,21.219
		c-19.052,1.752-36.023-5.434-47.123-15.156c-11.275-9.875-19.737-23.291-21.22-41.612c-1.686-20.823,5.523-35.99,14.881-46.848
		C350.705,84.857,364.874,75.018,383.34,73.502z M357.436,106.571c-3.416,3.613-6.275,8.159-7.991,12.401
		c-7.602,18.782-1.021,37.961,9.92,48.501c8.172,7.871,20.22,13.189,33.896,12.125c27.446-2.136,49.421-32.887,35.274-62.556
		c-6.457-13.543-22.023-25.996-43.266-23.975C372.326,94.3,363.737,99.906,357.436,106.571z"/>
	<path fill-rule="evenodd" clip-rule="evenodd" d="M114.378,171.332c48.651-3.832,83.781,21.768,102.791,50.155
		c10.318,15.41,17.758,32.442,19.84,56.769c1.199,13.994,0.552,36.174,0.552,55.115c0,6.299,0.61,13.479-1.929,17.085
		c-1.602,2.276-4.005,4.818-9.37,3.583c-9.112-2.099-6.89-15.741-6.89-27.833c0-11.73,0-24.293,0-34.446
		c0-24.246-5.669-41.359-14.054-55.115c-16.192-26.568-45.831-49.919-90.114-46.849c-39.417,2.733-67.706,27.954-80.743,57.596
		c-3.455,7.853-6.416,16.83-7.716,27.007c-1.266,9.905-0.828,20.689-0.828,33.068c0,16.101,0,34.198,0,51.809
		c0,4.123-1.13,14.549,0.552,16.534c1.619,1.913,17.147,0.827,20.944,0.827c101.858,0,202.562-0.001,304.786,0
		c11.583,0,23.232-1.87,25.629,6.338c1.224,4.19-0.718,8.521-2.48,10.196c-3.002,2.853-12.961,2.204-20.668,2.204
		c-53.785,0-106.412,0-160.109,0c-53.662,0-105.398,0-160.11,0c-6.884,0-17.906,1.104-21.771-0.826
		c-5.704-2.851-4.685-11.064-4.685-20.668c0-20.647,0-41.014,0-61.729c0-14.698-0.628-28.343,0.826-40.234
		c1.458-11.918,4.872-22.694,9.094-31.968c12.603-27.683,33.041-48.938,62.557-60.901C90.715,174.9,102.199,172.291,114.378,171.332
		z"/>
	<path fill-rule="evenodd" clip-rule="evenodd" d="M477.035,431.199c1.46-4.7,0.827-9.893,0.827-14.881c0-15.315,0-31.16,0-46.848
		c0-21.104,0.49-40.455-4.409-56.77c-9.161-30.501-31.668-53.157-61.729-63.106c-16.677-5.52-36.312-6.612-53.461-2.48
		c-16.14,3.89-30.586,11.87-41.061,21.22c-15.762,14.066-28.539,34.08-31.968,61.453c-1.229,9.806,0.576,21.25-9.094,22.046
		c-11.362,0.936-10.15-11.335-9.095-21.771c2.825-27.901,13.666-48.174,27.283-64.209c18.063-21.27,45.806-38.212,82.673-39.958
		c26.538-1.257,49.052,7.222,66.413,18.464c17.518,11.343,31.831,28.09,40.509,45.745c4.748,9.658,8.523,20.859,10.473,32.793
		c1.943,11.898,1.379,25.581,1.378,41.062c-0.001,21.404,0.001,42.69,0,64.76c0,8.342,0.915,16.454-3.307,19.842
		c-4.033,3.236-17.821,1.929-26.18,1.929c-55.24,0-111.146,0-167.55,0c-12.921,0-30.793,3.334-32.519-7.439
		c-0.758-4.737,1.552-8.555,4.409-10.196c4.686-2.693,17.904-1.103,25.077-1.103c10.009,0,19.405,0,25.905,0
		c21.114,0,35.776,0,52.083,0C408.562,431.751,444.274,432.205,477.035,431.199z"/>
</g>
</svg>