<?xml version="1.0" encoding="utf-8"?>
<!-- Generator: Adobe Illustrator 15.0.0, SVG Export Plug-In . SVG Version: 6.00 Build 0)  -->
<!DOCTYPE svg PUBLIC "-//W3C//DTD SVG 1.1//EN" "http://www.w3.org/Graphics/SVG/1.1/DTD/svg11.dtd">
<svg version="1.1" id="Layer_1" xmlns="http://www.w3.org/2000/svg" xmlns:xlink="http://www.w3.org/1999/xlink" x="0px" y="0px"
	 width="595.44px" height="309.68px" viewBox="0 0 595.44 309.68" enable-background="new 0 0 595.44 309.68" xml:space="preserve">
<g>
	<path fill-rule="evenodd" clip-rule="evenodd" d="M344.115,138.833c5.468,10.784,15.471,17.031,27.423,21.329
		C386.98,93.443,422.94,22.13,496.465,13.906c53.378-5.97,87.543,28.453,82.27,80.746c-6.499,64.421-71.734,94.129-134.068,105.121
		c4.458,54.056,70.385,39.218,99.027,16.758c12.929-10.138,21.397-28.14,35.041-27.423c15.234,10.72-6.498,47.368-21.329,63.987
		c-23.645,26.492-65.071,52.156-114.263,39.611c-41.071-10.475-62.159-47.434-70.081-94.457
		c-13.495-5.802-28.466-10.129-39.61-18.282c-18.806,42.085-35.909,109.226-91.41,115.786c-38.324,4.53-63.472-18.135-74.651-48.752
		c-27.485,25.911-32.453,44.855-65.51,48.752C-24.417,310.64,21.065,87.261,65,33.68c8.398-10.243,37.387-28.86,55.162-12.157
		c10.777,10.129-1.558,41.736-6.094,56.369c-12.272,39.593-21.582,59.22-24.376,109.692c-1.122,20.265-0.419,50.878,13.711,53.322
		c14.875,2.573,40.504-38.458,44.182-56.314c3.274-15.899,6.817-35.886,7.618-50.331c2.062-37.253,14.541-86.144,44.181-99.027
		c50.617-22,26.48,75.522,25.899,108.168c-0.684,38.461-3.352,94.253,16.758,97.503c15.576,2.518,29.224-23.812,36.564-38.087
		c8.105-15.766,19.446-34.787,19.115-48.728c-0.184-7.696-8.016-27.756-9.974-35.064c-10.243-38.25-0.936-95.746,30.47-99.027
		C371.193,14.464,354.34,111.601,344.115,138.833z M514.747,58.087c-17.425-4.125-30.182,8.02-38.087,18.282
		c-15.71,20.392-34.064,63.958-38.66,91.009C479.937,164.702,556.896,69.823,514.747,58.087z"/>
</g>
</svg>
