<?xml version="1.0" encoding="utf-8"?>
<!-- Generator: Adobe Illustrator 15.0.0, SVG Export Plug-In . SVG Version: 6.00 Build 0)  -->
<!DOCTYPE svg PUBLIC "-//W3C//DTD SVG 1.1//EN" "http://www.w3.org/Graphics/SVG/1.1/DTD/svg11.dtd">
<svg version="1.1" id="Capa_1" xmlns="http://www.w3.org/2000/svg" xmlns:xlink="http://www.w3.org/1999/xlink" x="0px" y="0px"
	 width="595.279px" height="595.281px" viewBox="0 0 595.279 595.281" enable-background="new 0 0 595.279 595.281"
	 xml:space="preserve">
<g>
	<g>
		<path fill="#FFFFFF" d="M297.714,0h-0.147C133.454,0,0,133.492,0,297.641c0,65.108,20.983,125.454,56.663,174.454L19.57,582.667
			l114.405-36.572c47.063,31.18,103.207,49.186,163.738,49.186c164.111,0,297.565-133.527,297.565-297.64S461.825,0,297.714,0z
			 M470.904,420.306c-7.181,20.275-35.68,37.094-58.412,42.004c-15.552,3.313-35.864,5.953-104.248-22.396
			c-87.469-36.238-143.797-125.121-148.188-130.888c-4.204-5.767-35.346-47.064-35.346-89.776s21.69-63.509,30.435-72.438
			c7.181-7.329,19.049-10.678,30.434-10.678c3.685,0,6.995,0.186,9.973,0.335c8.742,0.372,13.133,0.893,18.898,14.696
			c7.181,17.3,24.667,60.012,26.751,64.402c2.12,4.39,4.241,10.343,1.265,16.11c-2.789,5.953-5.245,8.594-9.636,13.654
			s-8.558,8.929-12.947,14.361c-4.019,4.725-8.558,9.785-3.497,18.528c5.061,8.557,22.547,37.093,48.292,60.012
			c33.225,29.577,60.161,39.027,69.797,43.046c7.181,2.978,15.737,2.271,20.982-3.312c6.66-7.182,14.883-19.086,23.254-30.807
			c5.952-8.408,13.469-9.449,21.355-6.474c8.036,2.79,50.563,23.812,59.305,28.164c8.743,4.392,14.511,6.474,16.63,10.157
			C478.085,382.691,478.085,399.992,470.904,420.306z"/>
	</g>
</g>
</svg>
